Coordinates
version=1
nRows=26
nColumns=24
inDegrees=yes

Units are S.I. units (second, meters, Newtons, ...)
Angles are in degrees.

endheader
time	pelvis_tilt	pelvis_list	pelvis_rotation	pelvis_tx	pelvis_ty	pelvis_tz	hip_flexion_r	hip_adduction_r	hip_rotation_r	knee_angle_r	ankle_angle_r	subtalar_angle_r	mtp_angle_r	hip_flexion_l	hip_adduction_l	hip_rotation_l	knee_angle_l	ankle_angle_l	subtalar_angle_l	mtp_angle_l	lumbar_extension	lumbar_bending	lumbar_rotation
      1.22066667	     -2.02412984	      8.19868144	     -5.05690814	      0.15927418	      1.00393984	      0.31163661	     17.72376575	    -10.63719394	      0.36450717	    -68.51696615	    -10.79734244	     -6.71770354	     11.38838483	      9.16425782	     13.42311464	      5.10632645	    -11.34622769	      3.57012197	    -17.90575830	     -1.87744611	    -11.08141134	     -2.85874700	      0.43432697
      1.22483333	     -2.03618666	      8.00648023	     -5.09959075	      0.16426207	      1.00480949	      0.31160260	     18.27760104	    -10.34291440	      0.37931246	    -68.28746121	     -9.83638576	     -7.02313730	     11.36711470	      8.64761693	     13.23752835	      5.17096303	    -10.95149152	      3.57987586	    -17.88414011	     -1.88820525	    -11.11528253	     -2.57556326	      0.28798561
      1.22900000	     -2.00061630	      7.78656970	     -5.13029225	      0.16928069	      1.00575964	      0.31156204	     18.74452376	    -10.02793060	      0.35954194	    -67.97080049	     -8.90879927	     -7.24886185	     11.29632729	      8.05163034	     13.02980268	      5.29747190	    -10.51041189	      3.58640682	    -17.91208078	     -1.91497743	    -11.17897537	     -2.24892203	     -0.03591331
      1.23316667	     -2.01181823	      7.58530569	     -5.15731347	      0.17425106	      1.00659717	      0.31152059	     19.26201595	     -9.72047954	      0.34744659	    -67.61191312	     -7.99427492	     -7.55689037	     11.25301992	      7.53664752	     12.83433039	      5.37168337	    -10.12004583	      3.58295500	    -17.89079524	     -1.93355712	    -11.22337370	     -1.95548376	     -0.18156700
      1.23733333	     -2.00023480	      7.37283762	     -5.16718420	      0.17927786	      1.00746006	      0.31146061	     19.71877942	     -9.41098576	      0.30247575	    -67.16767455	     -7.12503131	     -7.80376192	     11.14600279	      6.97045836	     12.63259657	      5.50507597	     -9.68592793	      3.58571809	    -17.92447677	     -1.97293241	    -11.25220885	     -1.63732330	     -0.50079588
      1.24150000	     -1.96860877	      7.17810649	     -5.16902422	      0.18426727	      1.00832111	      0.31139680	     20.14533342	     -9.12287849	      0.24703101	    -66.67446373	     -6.26558140	     -8.11979932	     10.93448111	      6.39279083	     12.45072559	      5.63787863	     -9.26098208	      3.54132454	    -17.95668868	     -2.04740537	    -11.33256235	     -1.34744614	     -0.78995497
      1.24566667	     -2.01651999	      6.95924433	     -5.17143167	      0.18925493	      1.00903163	      0.31134913	     20.63962498	     -8.78819268	      0.20170998	    -66.12018068	     -5.42978438	     -8.41108768	     10.88984949	      5.92998428	     12.23009036	      5.68747734	     -8.90182503	      3.57126549	    -17.91169545	     -2.06517662	    -11.31713598	     -1.04708565	     -0.85838764
      1.24983333	     -2.01253485	      6.72560248	     -5.15867373	      0.19425382	      1.00981629	      0.31129162	     21.04342813	     -8.44736325	      0.13000209	    -65.48411290	     -4.63420727	     -8.70321264	     10.81781673	      5.40206976	     11.99972190	      5.77539571	     -8.52975043	      3.59347979	    -17.87547473	     -2.09141714	    -11.37386842	     -0.71107839	     -1.04457454
      1.25400000	     -1.95974359	      6.48767418	     -5.14325235	      0.19927915	      1.01064808	      0.31122719	     21.36956010	     -8.11070310	      0.04707981	    -64.77556579	     -3.93318393	     -8.99487390	     10.64525087	      4.79213720	     11.76979796	      5.93124523	     -8.09913925	      3.62556818	    -17.86740958	     -2.14825739	    -11.46453307	     -0.35779661	     -1.41408675
      1.25816667	     -1.95335538	      6.26526486	     -5.11132256	      0.20428449	      1.01135489	      0.31115216	     21.73491914	     -7.78662571	     -0.04172750	    -64.02791930	     -3.19523824	     -9.29120350	     10.45137697	      4.26269934	     11.55096117	      6.04191922	     -7.72425442	      3.64132193	    -17.85398585	     -2.21221087	    -11.51355275	     -0.02713304	     -1.66368248
      1.26233333	     -1.96519284	      6.05110486	     -5.05885659	      0.20927912	      1.01199165	      0.31104895	     22.10421494	     -7.47297815	     -0.14142618	    -63.24167636	     -2.39844999	     -9.54399322	      6.91095559	      3.75216887	     11.34501692	      6.24432629	     -7.35169502	      3.63894959	    -17.97621102	     -3.31614850	    -11.53770739	      0.27307955	     -1.89146883
      1.26650000	     -1.98191882	      5.81686506	     -5.01981482	      0.21430024	      1.01261368	      0.31100269	     22.44772424	     -7.12441658	     -0.22099537	    -62.36402905	     -1.72022379	     -9.80621812	      6.89504226	      3.27446894	     11.10318028	      6.26359640	     -7.03005558	      3.67982085	    -17.85301392	     -3.31967495	    -11.56367809	      0.58710191	     -2.04395376
      1.27066667	     -1.95677687	      5.58563765	     -4.97006600	      0.21933469	      1.01323967	      0.31093543	     22.72722196	     -6.79194636	     -0.31868589	    -61.43549665	     -1.11343704	    -10.11700207	      6.84642052	      2.73371902	     10.86980816	      6.35871486	     -6.67524041	      3.77071677	    -17.74930702	     -3.32854580	    -11.62988632	      0.93431365	     -2.32037890
      1.27483333	     -1.96912048	      5.36068734	     -4.89965032	      0.22434874	      1.01376777	      0.31085911	     23.02809578	     -6.46390147	     -0.41897607	    -60.45863047	     -0.47459030	    -10.38535662	      6.80509702	      2.26651250	     10.64026584	      6.42951241	     -6.38646724	      3.82317980	    -17.68903434	     -3.33832163	    -11.66191991	      1.24045115	     -2.49775874
      1.27900000	     -1.98313690	      5.14216898	     -4.82560269	      0.22938029	      1.01424802	      0.31078390	     23.31295314	     -6.14355633	     -0.51608950	    -59.42905458	      0.09607510	    -10.66126070	      6.74867462	      1.79402288	     10.41586262	      6.52417013	     -6.08222537	      3.89508156	    -17.62558384	     -3.35104229	    -11.68271062	      1.55337131	     -2.72101269
      1.28316667	     -1.96973748	      4.93143333	     -4.75194497	      0.23443678	      1.01472608	      0.31071175	     23.55003185	     -5.83572682	     -0.60886057	    -58.34757581	      0.58814348	    -10.95484316	      6.64569887	      1.28072205	     10.20018452	      6.63690753	     -5.75332321	      3.98772434	    -17.54860206	     -3.37389360	    -11.72759132	      1.87462354	     -3.02888335
      1.28733333	     -1.99810447	      4.72442624	     -4.65902405	      0.23946329	      1.01508626	      0.31062851	     23.81507339	     -5.53059113	     -0.70355891	    -57.22349380	      1.11959011	    -11.18460161	      6.57196018	      0.85321586	      9.98592357	      6.71447209	     -5.50765811	      4.05681084	    -17.49184849	     -3.39099178	    -11.73808496	      2.16116395	     -3.20250524
      1.29150000	     -1.97792743	      4.52099426	     -4.57226760	      0.24453395	      1.01546521	      0.31055588	     24.00788630	     -5.23525470	     -0.79386995	    -56.04609003	      1.53135614	    -11.47618143	      6.42867481	      0.34768731	      9.77608708	      6.82541185	     -5.21046250	      4.16773830	    -17.40312366	     -3.42246580	    -11.78893353	      2.46883425	     -3.51495992
      1.29566667	     -1.99527376	      4.32846939	     -4.47093017	      0.24958421	      1.01574528	      0.31047166	     24.22628456	     -4.95362930	     -0.88650001	    -54.82761509	      1.94392699	    -11.71105443	      6.28013131	     -0.09137420	      9.57513687	      6.91987093	     -4.96230839	      4.26870938	    -17.32965418	     -3.45579675	    -11.79917862	      2.74942719	     -3.74846044
      1.29983333	     -2.03053314	      4.14910288	     -4.36225269	      0.25462401	      1.01594606	      0.31039449	     24.44931509	     -4.68567425	     -0.97042604	    -53.57083316	      2.35622456	    -11.89874243	      6.18345621	     -0.48740440	      9.38668999	      7.00607137	     -4.76215685	      4.35150357	    -17.27372254	     -3.47774863	    -11.79947613	      3.00659324	     -3.90661182
      1.30400000	     -2.01573168	      3.99049753	     -4.25314143	      0.25968518	      1.01615141	      0.31032944	     24.60568659	     -4.44559876	     -1.05086110	    -52.27759798	      2.68912861	    -12.19093216	      5.85549980	     -0.95546918	      9.22073083	      7.10954466	     -4.51774637	      4.44454691	    -17.18270691	     -3.55278178	    -11.83858789	      3.25901151	     -4.28807312
      1.30816667	     -2.04026172	      3.82389219	     -4.14922610	      0.26475804	      1.01625348	      0.31026211	     24.78567153	     -4.19701832	     -1.12396151	    -50.93650224	      2.95211832	    -12.35226656	      5.67434923	     -1.37183933	      9.04512612	      7.22699841	     -4.29916060	      4.57014039	    -17.13263638	     -3.59202918	    -11.83765029	      3.50297407	     -4.44931653
      1.31233333	     -2.06428928	      3.68692492	     -4.03464100	      0.26980448	      1.01628530	      0.31020954	     24.95799911	     -3.98017261	     -1.18958355	    -49.57592527	      3.24290274	    -12.56605714	      5.38313730	     -1.77134065	      8.89915234	      7.33680713	     -4.10590751	      4.64658157	    -17.08092622	     -3.65692142	    -11.84984588	      3.71650344	     -4.71194801
      1.31650000	     -2.10011121	      3.54521669	     -3.92428331	      0.27489694	      1.01625960	      0.31014407	     25.12173636	     -3.76706078	     -1.26383553	    -48.16998158	      3.45557309	    -12.69091172	      5.21064834	     -2.16274617	      8.74861711	      7.44783540	     -3.90962588	      4.76523580	    -17.04736700	     -3.69214732	    -11.82782384	      3.93004493	     -4.86948046
      1.32066667	     -2.14692028	      3.42522225	     -3.80880271	      0.27995976	      1.01615794	      0.31009443	     25.28697059	     -3.57612154	     -1.32661871	    -46.73913553	      3.68747592	    -12.79396764	      5.08960551	     -2.51749624	      8.62045047	      7.55238410	     -3.75920821	      4.85042463	    -17.02252905	     -3.71644735	    -11.81286125	      4.11606561	     -5.01824718
      1.32483333	     -2.15777897	      3.31740026	     -3.70137638	      0.28503479	      1.01606057	      0.31007599	     25.39712915	     -3.39774819	     -1.37913887	    -45.26961828	      3.83961370	    -12.94875653	      4.91877419	     -2.92751899	      8.50420611	      7.67466376	     -3.56893609	      4.94501994	    -16.99510768	     -3.74945834	    -11.82309464	      4.28198178	     -5.25583567
